<?xml version="1.0" standalone="no"?>
<!DOCTYPE svg PUBLIC "-//W3C//DTD SVG 20010904//EN"
 "http://www.w3.org/TR/2001/REC-SVG-20010904/DTD/svg10.dtd">
<svg version="1.0" xmlns="http://www.w3.org/2000/svg"
 width="660.000000pt" height="371.000000pt" viewBox="0 0 660.000000 371.000000"
 preserveAspectRatio="xMidYMid meet">

<g transform="translate(0.000000,371.000000) scale(0.100000,-0.100000)"
fill="#000000" stroke="none">
<path d="M0 2896 l0 -813 37 3 c21 2 51 6 67 9 22 4 27 2 22 -11 -4 -11 -1
-14 12 -10 9 3 34 8 55 12 28 5 35 9 25 16 -8 5 8 7 44 6 44 -2 54 -6 46 -15
-7 -9 -7 -13 1 -13 16 0 54 20 63 34 4 6 10 7 14 3 4 -3 1 -13 -5 -21 -17 -20
-2 -26 60 -24 30 1 64 -2 77 -6 12 -4 22 -3 22 1 0 5 27 15 61 22 48 11 63 11
72 1 10 -10 7 -11 -10 -6 -12 4 -24 3 -27 -2 -3 -5 27 -12 66 -16 40 -4 75
-12 80 -18 5 -10 18 -9 55 1 48 14 70 16 150 13 33 -2 43 -7 48 -23 6 -17 14
-20 48 -19 23 1 44 1 47 0 21 -7 60 -5 85 5 18 8 77 13 143 13 98 1 112 -1
102 -13 -12 -14 -5 -18 26 -14 3 0 12 -8 20 -18 9 -12 13 -14 14 -4 0 8 7 11
20 8 11 -3 20 -1 20 4 0 4 6 6 14 3 7 -3 31 2 52 12 22 9 70 18 109 19 39 1
84 5 100 9 17 4 40 9 53 12 13 2 20 9 17 14 -3 5 0 7 8 4 8 -3 22 2 31 11 9 9
16 13 16 9 0 -5 5 -3 12 4 17 17 29 15 22 -3 -5 -11 1 -15 19 -15 14 0 28 -7
31 -16 6 -15 9 -15 29 -1 19 12 25 13 33 2 7 -11 20 -11 74 4 36 9 87 27 114
39 27 12 52 22 57 22 5 0 9 5 9 10 0 6 7 10 16 10 9 0 27 11 40 25 22 24 52
35 39 15 -3 -5 -2 -10 4 -10 5 0 17 -8 26 -17 16 -15 18 -15 26 -1 8 15 27 16
89 6 30 -5 110 13 104 24 -4 5 4 20 17 32 20 19 28 21 44 12 11 -6 22 -14 25
-18 16 -21 121 -29 170 -13 22 7 23 6 11 -9 -12 -14 -11 -16 7 -16 11 0 22 5
24 12 5 14 78 12 92 -2 4 -4 27 0 50 11 22 10 46 19 53 19 7 0 29 12 50 26 29
20 39 22 41 11 2 -9 22 -16 58 -20 56 -6 59 -5 172 46 15 7 41 7 86 -1 35 -7
77 -9 95 -6 21 4 31 3 31 -5 0 -15 29 -7 77 21 19 11 55 22 81 23 50 2 121 14
136 23 4 2 45 6 91 7 45 1 88 5 94 10 20 12 133 36 169 35 17 0 32 3 32 8 0 4
19 18 42 31 31 16 43 19 49 10 11 -18 353 -25 384 -9 12 6 33 10 46 7 22 -4
22 -4 -3 -6 -16 0 -28 -5 -28 -11 0 -16 93 1 116 21 43 39 282 90 306 65 8 -7
30 -11 56 -8 38 4 42 7 42 31 -1 14 -7 37 -14 50 -8 14 -12 31 -9 38 7 18 -27
47 -76 63 -28 9 -41 19 -41 31 0 29 -60 67 -118 75 -29 3 -55 11 -58 15 -3 5
-17 9 -31 9 -19 0 -24 4 -19 16 3 9 6 30 6 48 0 24 6 36 23 44 21 10 21 11
-10 17 -23 5 -33 13 -33 26 0 11 -7 19 -16 19 -11 0 -14 5 -10 16 5 12 2 15
-9 10 -9 -3 -13 -2 -10 4 3 6 1 10 -5 10 -7 0 -8 6 0 19 15 29 14 31 -32 32
-39 0 -41 1 -18 10 18 8 21 12 11 18 -9 6 -10 11 -2 15 13 8 4 62 -15 93 -7
12 -24 24 -36 26 -20 4 -19 4 5 6 31 1 39 31 8 31 -11 0 -23 5 -26 10 -4 7
-37 8 -88 4 -68 -5 -80 -4 -69 7 16 18 15 48 -2 55 -11 4 -13 12 -6 29 6 16 6
27 -1 31 -8 4 -7 9 2 15 11 7 9 9 -6 9 -19 1 -19 2 3 20 l24 20 -22 27 -21 27
26 22 c14 12 25 26 24 30 -6 32 4 56 26 66 14 6 24 17 21 24 -3 7 5 14 16 17
11 3 17 10 13 16 -4 8 -381 11 -1256 11 l-1250 0 3 -87 3 -88 60 -6 c33 -3 73
-12 89 -20 95 -46 99 -191 7 -239 -38 -19 -93 -25 -198 -22 l-63 2 0 230 0
230 -55 0 -55 0 0 -230 0 -230 -50 0 -50 0 0 95 0 95 -90 0 -90 0 0 -95 0 -95
-50 0 -50 0 0 230 0 230 -45 0 -45 0 0 -40 c0 -45 5 -43 -97 -41 l-73 1 0 -50
0 -50 75 0 75 0 0 -45 c0 -25 -3 -44 -7 -44 -5 1 -38 1 -75 0 l-68 -1 0 -55 0
-54 83 -3 82 -3 3 -37 3 -38 -135 0 -136 0 -2 178 c0 97 0 201 1 230 l3 52
-66 0 -66 0 0 -190 0 -190 30 0 30 0 0 -110 0 -110 -50 0 -50 0 0 70 0 71
-142 -3 -143 -3 0 -68 0 -67 -47 0 -48 0 0 110 c0 101 2 110 19 110 14 0 25
17 44 63 36 91 65 194 72 260 l7 57 -481 0 -481 0 0 -814z m2127 58 c-3 -3
-12 -4 -19 -1 -8 3 -5 6 6 6 11 1 17 -2 13 -5z m-481 -149 c80 -23 126 -86
139 -186 22 -178 -81 -293 -249 -275 -58 6 -107 28 -139 64 -43 47 -62 181
-37 271 29 109 155 165 286 126z m995 4 c99 -21 151 -103 150 -240 0 -146 -79
-229 -216 -229 -69 0 -117 19 -161 65 -35 35 -43 53 -54 108 -13 72 -7 131 20
192 23 52 57 83 111 100 55 17 85 18 150 4z m-1401 -189 l0 -190 30 0 30 0 0
-110 0 -110 -50 0 -50 0 0 70 0 71 -142 -3 -143 -3 -1 -35 c-4 -110 1 -100
-49 -100 l-45 0 0 110 c0 90 3 110 15 110 8 0 21 10 29 23 25 37 84 229 92
296 l7 61 138 0 139 0 0 -190z m741 98 l-2 -88 90 0 91 0 0 90 0 90 50 0 50 0
0 -230 0 -230 -50 0 -50 0 0 95 c0 77 -3 95 -15 96 -8 0 -31 1 -50 1 -19 0
-53 -1 -75 -1 l-40 -1 0 -95 0 -95 -50 0 -50 0 0 231 0 230 52 -3 51 -3 -2
-87z m1161 72 c40 -19 72 -90 65 -146 -9 -83 -56 -122 -159 -131 l-58 -6 0
-78 0 -79 -50 0 -50 0 0 231 0 231 113 -4 c64 -3 124 -10 139 -18z m431 -125
c26 -77 59 -169 72 -205 43 -118 44 -110 -17 -110 l-54 0 -18 55 -17 55 -72 0
c-40 0 -77 -4 -84 -8 -6 -4 -17 -29 -23 -55 l-12 -47 -54 0 c-30 0 -54 2 -54
5 0 3 18 58 41 122 22 65 56 162 74 215 18 54 36 102 40 108 4 6 32 10 68 8
l61 -3 49 -140z m-3476 -41 c-3 -3 -12 -4 -19 -1 -8 3 -5 6 6 6 11 1 17 -2 13
-5z m3968 -4 c3 -6 -1 -7 -9 -4 -18 7 -21 14 -7 14 6 0 13 -4 16 -10z m-1868
-516 c-3 -3 -12 -4 -19 -1 -8 3 -5 6 6 6 11 1 17 -2 13 -5z m53 2 c0 -3 -4 -8
-10 -11 -5 -3 -10 -1 -10 4 0 6 5 11 10 11 6 0 10 -2 10 -4z"/>
<path d="M1490 2700 c-57 -61 -53 -199 8 -253 24 -22 99 -25 130 -6 32 20 52
74 52 140 0 100 -37 149 -113 149 -41 0 -53 -5 -77 -30z"/>
<path d="M2511 2714 c-62 -44 -71 -202 -13 -259 27 -28 91 -34 135 -14 69 31
75 218 9 269 -31 25 -98 26 -131 4z"/>
<path d="M1047 2723 c-3 -4 -8 -28 -12 -53 -9 -56 -54 -202 -66 -215 -20 -20
-5 -25 81 -25 l91 0 -3 148 -3 147 -42 3 c-22 2 -43 -1 -46 -5z"/>
<path d="M2990 2660 c0 -79 7 -84 74 -56 77 32 45 126 -43 126 l-31 0 0 -70z"/>
<path d="M3432 2635 c-12 -41 -22 -79 -22 -85 0 -5 23 -10 50 -10 31 0 50 4
50 11 0 19 -44 159 -50 159 -3 0 -16 -34 -28 -75z"/>
<path d="M1830 3620 l0 -90 90 0 90 0 0 90 0 90 -90 0 -90 0 0 -90z"/>
<path d="M5210 3630 c0 -11 2 -20 4 -20 2 0 6 9 9 20 3 11 1 20 -4 20 -5 0 -9
-9 -9 -20z"/>
<path d="M5953 3635 c-3 -9 -3 -18 -1 -21 3 -3 8 4 11 16 6 23 -1 27 -10 5z"/>
<path d="M5370 3623 c0 -13 5 -23 10 -23 13 0 13 11 0 30 -8 12 -10 11 -10 -7z"/>
<path d="M5483 3625 c-3 -9 -3 -18 -1 -21 3 -3 8 4 11 16 6 23 -1 27 -10 5z"/>
<path d="M5586 3633 c6 -4 14 -15 17 -23 5 -11 6 -9 4 4 -1 11 -9 21 -17 23
-10 3 -11 2 -4 -4z"/>
<path d="M5636 3632 c6 -4 14 -14 17 -22 4 -10 6 -8 6 8 1 15 -5 22 -16 22
-11 0 -14 -3 -7 -8z"/>
<path d="M5773 3625 c-3 -9 -3 -18 -1 -21 3 -3 8 4 11 16 6 23 -1 27 -10 5z"/>
<path d="M6016 3632 c6 -4 14 -14 17 -22 4 -10 6 -8 6 8 1 15 -5 22 -16 22
-11 0 -14 -3 -7 -8z"/>
<path d="M6077 3619 c4 -13 8 -18 11 -10 2 7 -1 18 -6 23 -8 8 -9 4 -5 -13z"/>
<path d="M6158 3633 c7 -3 16 -2 19 1 4 3 -2 6 -13 5 -11 0 -14 -3 -6 -6z"/>
<path d="M6222 3620 c0 -14 2 -19 5 -12 2 6 2 18 0 25 -3 6 -5 1 -5 -13z"/>
<path d="M1053 3622 c-5 -4 -13 -27 -17 -52 -4 -25 -22 -89 -40 -142 l-32 -98
88 0 88 0 0 145 c0 109 -3 145 -12 146 -7 1 -25 3 -39 4 -14 2 -30 0 -36 -3z"/>
<path d="M5320 3615 c0 -6 9 -11 20 -11 11 0 20 5 20 11 0 6 -9 11 -20 11 -11
0 -20 -5 -20 -11z"/>
<path d="M5446 3621 c-19 -7 -19 -8 2 -13 15 -4 22 -2 22 8 0 8 -1 14 -2 13
-2 0 -12 -4 -22 -8z"/>
<path d="M5522 3610 c0 -14 2 -19 5 -12 2 6 2 18 0 25 -3 6 -5 1 -5 -13z"/>
<path d="M5720 3617 c0 -7 9 -13 20 -13 11 0 20 1 20 3 0 1 -9 7 -20 13 -15 8
-20 8 -20 -3z"/>
<path d="M5823 3613 c0 -8 6 -9 19 -2 10 5 18 11 18 12 0 2 -8 3 -18 3 -10 0
-19 -6 -19 -13z"/>
<path d="M5981 3614 c0 -11 3 -14 6 -6 3 7 2 16 -1 19 -3 4 -6 -2 -5 -13z"/>
<path d="M6101 3614 c0 -11 3 -14 6 -6 3 7 2 16 -1 19 -3 4 -6 -2 -5 -13z"/>
<path d="M6193 3615 c0 -8 4 -12 9 -9 5 3 6 10 3 15 -9 13 -12 11 -12 -6z"/>
<path d="M6050 3609 c0 -5 5 -7 10 -4 6 3 10 8 10 11 0 2 -4 4 -10 4 -5 0 -10
-5 -10 -11z"/>
<path d="M2320 3391 l0 -61 43 0 c50 0 73 14 82 50 9 39 -13 60 -72 67 l-53 6
0 -62z"/>
<path d="M3250 2240 c-8 -5 -11 -12 -7 -16 4 -4 15 0 24 9 18 18 8 23 -17 7z"/>
<path d="M6078 2104 c-5 -4 -8 -32 -8 -61 l0 -54 33 3 c27 2 33 8 35 31 3 23
0 27 -22 27 -20 0 -25 5 -28 31 -2 17 -6 27 -10 23z m42 -84 c0 -11 -7 -20
-15 -20 -15 0 -21 21 -8 33 12 13 23 7 23 -13z"/>
<path d="M5840 2090 l-25 -8 24 -1 c19 -1 22 -5 17 -25 -3 -14 -2 -28 4 -31
20 -13 9 -36 -20 -42 -17 -3 -33 -10 -36 -15 -11 -18 60 3 81 23 19 18 19 19
1 32 -13 10 -15 16 -8 21 16 10 15 56 0 55 -7 -1 -24 -5 -38 -9z"/>
<path d="M5995 2070 c-18 -35 -45 -40 -45 -7 0 18 -2 19 -10 7 -13 -20 -13
-90 0 -90 6 0 10 11 10 25 0 20 5 25 25 25 20 0 25 -5 25 -25 0 -34 20 -32 21
3 1 15 2 42 3 60 3 40 -9 41 -29 2z"/>
<path d="M5677 2083 c-11 -10 -8 -123 3 -123 15 0 53 41 44 48 -3 4 -9 1 -11
-5 -11 -32 -22 -8 -18 37 4 46 -2 60 -18 43z"/>
<path d="M5560 2055 c0 -25 -2 -26 -32 -21 l-33 6 28 -12 29 -13 -25 -27 c-27
-29 -24 -48 3 -23 16 14 18 14 23 0 9 -22 30 -19 22 4 -8 26 7 33 44 20 18 -6
35 -9 38 -5 3 3 -8 11 -25 17 -37 13 -41 29 -12 47 11 7 20 17 20 24 0 6 -10
2 -23 -10 -28 -26 -39 -28 -35 -6 2 10 -3 19 -9 21 -8 3 -13 -5 -13 -22z"/>
<path d="M5743 2050 c-8 -22 -9 -39 -1 -61 14 -40 21 -30 25 36 4 61 -7 71
-24 25z"/>
<path d="M5320 1994 c0 -62 1 -65 18 -53 9 8 21 20 25 27 12 19 27 14 27 -8 0
-11 5 -20 10 -20 6 0 10 27 10 60 0 33 -4 60 -10 60 -5 0 -10 -10 -10 -23 0
-13 -11 -34 -25 -47 l-25 -23 0 46 c0 26 -4 47 -10 47 -6 0 -10 -29 -10 -66z"/>
<path d="M5120 2005 c-7 -25 -17 -45 -22 -45 -5 0 -7 -4 -4 -9 3 -5 2 -30 -3
-55 -11 -61 8 -57 26 4 17 59 30 70 50 45 14 -19 14 -17 8 25 -7 43 -24 80
-36 80 -4 0 -12 -20 -19 -45z m40 -26 c0 -5 -4 -9 -10 -9 -5 0 -10 7 -10 16 0
8 5 12 10 9 6 -3 10 -10 10 -16z"/>
<path d="M4967 2023 c-27 -4 -28 -5 -25 -66 4 -77 23 -82 23 -7 0 52 1 55 25
55 23 0 25 -5 30 -50 6 -61 16 -49 19 23 2 57 3 56 -72 45z"/>
<path d="M5216 2004 c-3 -9 -6 -29 -6 -45 0 -26 3 -29 34 -29 19 0 38 4 41 10
4 6 -6 7 -25 4 -25 -6 -30 -3 -30 13 0 22 19 48 40 56 8 3 1 6 -16 6 -20 1
-34 -5 -38 -15z"/>
<path d="M3937 2003 c-4 -3 -7 -13 -7 -21 0 -12 3 -12 15 -2 8 7 15 16 15 21
0 11 -14 12 -23 2z"/>
<path d="M4447 1993 c-4 -3 -7 -33 -7 -65 l0 -58 34 0 c22 0 36 6 40 17 8 20
-3 103 -14 103 -5 0 -6 -8 -3 -18 5 -19 -23 -50 -34 -38 -4 4 -2 15 4 26 9 14
9 21 -1 29 -7 6 -16 8 -19 4z m55 -88 c-5 -30 -42 -36 -42 -6 0 18 12 29 36
30 7 1 9 -9 6 -24z"/>
<path d="M4558 1994 c-5 -4 -8 -32 -8 -61 l0 -54 33 3 c27 2 33 8 35 31 3 23
0 27 -22 27 -20 0 -25 5 -28 31 -2 17 -6 27 -10 23z m42 -84 c0 -11 -7 -20
-15 -20 -17 0 -18 2 -9 24 9 23 24 20 24 -4z"/>
<path d="M4870 1991 c-27 -7 -47 -48 -37 -75 7 -18 44 -21 67 -5 12 8 9 9 -13
5 -19 -5 -29 -2 -33 8 -7 19 13 56 31 56 8 0 15 5 15 10 0 6 -1 10 -2 9 -2 -1
-14 -4 -28 -8z"/>
<path d="M4225 1962 c-9 -24 -5 -112 5 -112 6 0 10 14 10 30 0 27 3 30 30 30
17 0 30 5 30 13 0 6 3 22 6 34 6 20 3 22 -35 20 -24 -1 -43 -7 -46 -15z m65
-17 c0 -18 -5 -25 -20 -25 -22 0 -26 20 -8 38 19 19 28 14 28 -13z"/>
<path d="M4081 1920 c-14 -65 -14 -87 0 -96 14 -8 29 14 29 43 0 24 22 43 28
25 2 -7 8 -10 12 -7 5 3 7 12 3 21 -3 8 3 24 12 34 27 30 5 24 -27 -7 l-28
-27 0 32 c0 49 -17 38 -29 -18z"/>
<path d="M3880 1895 c0 -36 3 -65 7 -65 4 0 20 12 35 27 27 26 28 26 28 5 0
-12 6 -22 13 -22 8 0 12 18 12 55 0 37 -4 55 -12 55 -7 0 -13 -10 -13 -23 0
-13 -12 -34 -26 -48 l-26 -24 3 53 c3 37 0 52 -8 52 -9 0 -13 -20 -13 -65z"/>
<path d="M4341 1929 c-8 -24 -8 -36 0 -45 14 -17 41 -18 57 -2 17 17 15 65 -4
72 -30 12 -42 6 -53 -25z m49 -8 c0 -32 -16 -49 -31 -34 -14 14 0 63 17 63 9
0 14 -11 14 -29z"/>
<path d="M4730 1950 c-11 -7 -4 -10 28 -10 23 0 42 5 42 10 0 13 -50 13 -70 0z"/>
<path d="M3787 1898 c-10 -29 -20 -66 -22 -83 -1 -16 -5 -35 -7 -41 -1 -7 1
-13 7 -14 5 0 16 22 23 49 15 52 33 64 51 34 9 -15 10 -14 11 10 0 32 -25 97
-37 97 -5 0 -17 -24 -26 -52z m43 -13 c0 -8 -4 -15 -10 -15 -5 0 -10 7 -10 15
0 8 5 15 10 15 6 0 10 -7 10 -15z"/>
<path d="M2190 1923 c-38 -27 -59 -55 -66 -90 -14 -71 28 -133 91 -133 35 0
35 -1 35 -42 0 -65 35 -127 84 -149 23 -10 50 -19 60 -19 16 0 15 3 -8 25 -15
14 -38 25 -51 25 -28 0 -55 33 -48 60 6 21 30 34 38 20 14 -23 51 -7 98 42 28
28 52 56 53 62 1 6 9 28 18 49 l17 38 27 -33 c15 -17 26 -37 25 -43 -2 -6 12
-15 30 -20 27 -9 33 -16 41 -54 6 -28 6 -57 -1 -82 -10 -37 -9 -39 14 -39 27
0 73 41 73 64 0 21 -106 227 -129 249 -30 30 -162 31 -233 2 -13 -5 -18 -2
-18 10 0 9 -13 30 -29 46 -34 34 -83 39 -121 12z"/>
<path d="M3647 1933 c-2 -4 -10 -29 -18 -55 -7 -27 -18 -48 -23 -48 -6 0 -6
-4 0 -10 10 -10 115 8 114 20 -1 3 -11 25 -23 49 -21 44 -41 60 -50 44z m43
-75 c0 -11 -7 -18 -20 -18 -21 0 -26 22 -13 56 6 16 7 16 20 -2 7 -10 13 -26
13 -36z"/>
<path d="M3510 1881 c-12 -24 -13 -68 -2 -75 5 -3 22 -1 38 4 l29 8 -29 1
c-26 1 -28 3 -21 28 4 16 7 28 8 29 1 1 11 6 22 12 19 11 18 11 -7 12 -17 0
-31 -7 -38 -19z"/>
<path d="M4165 1850 c6 -35 20 -58 31 -48 3 3 -4 23 -16 45 l-21 38 6 -35z"/>
<path d="M2600 1661 c0 -8 -7 -11 -15 -7 -8 3 -15 1 -15 -4 0 -6 6 -10 14 -10
17 0 31 18 22 27 -3 4 -6 1 -6 -6z"/>
<path d="M2475 1630 c-3 -5 -1 -10 4 -10 6 0 11 5 11 10 0 6 -2 10 -4 10 -3 0
-8 -4 -11 -10z"/>
<path d="M2545 1579 c-4 -6 -14 -8 -24 -4 -13 5 -14 4 -3 -6 10 -11 15 -10 29
4 10 9 14 17 11 17 -4 0 -10 -5 -13 -11z"/>
<path d="M6499 1527 c6 -8 11 -19 9 -23 -5 -19 14 -52 37 -64 14 -7 25 -17 25
-22 0 -4 7 -8 15 -8 11 0 15 12 15 45 0 25 -1 45 -2 45 -2 0 -27 9 -57 21 -40
15 -51 16 -42 6z"/>
<path d="M3120 1438 c0 -48 19 -107 41 -129 10 -10 19 -27 20 -36 0 -14 2 -13
9 5 12 29 60 31 60 2 0 -11 5 -20 10 -20 6 0 10 9 10 19 0 10 6 21 14 24 16 6
51 129 43 151 -5 13 -25 16 -107 16 l-100 0 0 -32z m190 -18 l0 -30 -85 0 -85
0 0 30 0 30 85 0 85 0 0 -30z"/>
<path d="M1390 1435 c-27 -14 -62 -24 -88 -25 -24 0 -53 -5 -65 -11 -28 -16
-87 -74 -87 -86 0 -6 -7 -13 -15 -17 -10 -4 -15 -20 -15 -53 0 -74 8 -94 34
-87 14 3 28 -1 35 -10 32 -39 57 6 31 55 -9 15 -7 21 5 25 8 3 15 12 15 19 0
17 20 24 51 18 17 -3 35 3 55 20 40 33 110 42 124 16 9 -17 8 -18 -19 -13 -16
4 -31 1 -35 -5 -5 -7 8 -11 40 -11 46 0 46 0 39 28 -3 15 -6 47 -5 71 1 45
-21 91 -43 91 -6 -1 -32 -12 -57 -25z"/>
<path d="M4004 1426 c-18 -8 -35 -19 -38 -25 -4 -6 -16 -11 -27 -11 -31 0 -79
-53 -79 -88 0 -50 12 -92 26 -92 8 0 14 5 14 10 0 6 11 15 25 22 13 6 22 15
19 19 -3 5 2 22 11 39 l16 31 29 -25 c16 -13 48 -27 70 -31 37 -6 44 -12 60
-51 15 -34 25 -44 43 -44 12 0 28 5 35 12 16 16 42 -7 42 -37 0 -25 -29 -55
-53 -55 -9 0 -17 -5 -17 -10 0 -6 -20 -25 -45 -42 -54 -38 -57 -62 -11 -89 65
-38 136 -187 136 -283 0 -39 3 -46 23 -51 13 -4 30 -5 37 -3 19 4 25 -34 10
-61 -9 -18 -20 -21 -84 -21 l-74 0 -25 -47 -25 -48 -53 0 c-75 0 -144 22 -196
62 -39 30 -52 34 -114 36 -47 1 -69 6 -69 14 0 17 -7 16 -72 -6 -164 -56 -203
-112 -273 -389 -19 -75 -35 -143 -35 -149 0 -8 12 -13 30 -13 27 0 34 9 102
135 40 74 76 135 79 135 3 0 11 -30 18 -68 37 -192 40 -202 70 -202 26 0 29 3
35 53 3 28 6 94 6 145 l0 92 28 -7 c51 -15 180 -8 200 10 16 15 46 17 224 17
199 0 205 1 225 22 60 68 102 196 157 483 33 179 21 242 -58 279 -28 13 -36
23 -36 44 -1 36 -17 62 -62 101 -23 20 -43 49 -50 73 -6 22 -24 53 -40 68 -52
53 -167 75 -234 46z m-9 -1066 c-3 -5 -12 -10 -18 -10 -7 0 -6 4 3 10 19 12
23 12 15 0z m-92 -17 c-7 -2 -21 -2 -30 0 -10 3 -4 5 12 5 17 0 24 -2 18 -5z
m-113 -13 c-14 -4 -34 -8 -45 -8 -16 0 -15 2 5 8 14 4 34 8 45 8 16 0 15 -2
-5 -8z m-73 -6 c-3 -3 -12 -4 -19 -1 -8 3 -5 6 6 6 11 1 17 -2 13 -5z"/>
<path d="M6586 1378 c-4 -10 -14 -18 -22 -18 -12 0 -12 -4 -2 -22 7 -13 15
-25 18 -28 11 -11 10 -40 -2 -40 -9 0 -9 -3 0 -12 19 -19 23 -5 20 68 -2 47
-6 63 -12 52z"/>
<path d="M800 1275 c0 -51 20 -109 43 -121 8 -5 17 -18 20 -29 4 -18 5 -18 6
3 1 17 7 22 30 22 23 0 31 -5 34 -22 l4 -23 8 23 c4 12 11 22 15 22 14 0 40
80 40 125 l0 45 -100 0 -100 0 0 -45z m190 -5 l0 -30 -90 0 -90 0 0 30 0 30
90 0 90 0 0 -30z"/>
<path d="M3222 1245 c0 -16 2 -22 5 -12 2 9 2 23 0 30 -3 6 -5 -1 -5 -18z"/>
<path d="M4070 1251 c0 -5 7 -12 16 -15 14 -5 15 -4 4 9 -14 17 -20 19 -20 6z"/>
<path d="M1275 1230 c-28 -31 -10 -36 22 -6 20 19 23 26 12 26 -9 0 -24 -9
-34 -20z"/>
<path d="M6576 1218 c-13 -65 -12 -78 5 -94 18 -17 19 -15 19 49 0 65 -15 91
-24 45z"/>
<path d="M1470 1219 c0 -6 -7 -8 -16 -5 -8 3 -12 2 -9 -4 10 -15 35 -12 35 5
0 8 -2 15 -5 15 -3 0 -5 -5 -5 -11z"/>
<path d="M2683 1212 c-13 -2 -23 -10 -23 -18 0 -15 7 -16 128 -17 59 0 72 -3
67 -14 -3 -8 -5 -53 -5 -99 0 -77 -2 -84 -20 -84 -18 0 -20 7 -20 60 0 47 -3
60 -15 60 -12 0 -15 -13 -15 -60 0 -53 -2 -60 -20 -60 -18 0 -20 7 -20 80 0
64 -3 80 -15 80 -12 0 -15 -15 -15 -74 0 -41 -2 -80 -5 -88 -9 -22 44 -34 138
-30 66 3 87 7 87 18 0 8 -9 14 -20 14 -19 0 -20 7 -20 90 0 53 -4 90 -10 90
-5 0 -10 5 -10 10 0 6 14 10 30 10 36 0 43 30 8 31 -107 3 -207 4 -225 1z"/>
<path d="M3922 1184 c4 -21 22 -23 26 -1 2 10 -3 17 -13 17 -10 0 -15 -6 -13
-16z"/>
<path d="M4060 1181 c0 -12 6 -21 16 -21 9 0 14 7 12 17 -5 25 -28 28 -28 4z"/>
<path d="M1325 1150 c-19 -8 -19 -9 3 -9 12 -1 22 4 22 9 0 6 -1 10 -2 9 -2 0
-12 -4 -23 -9z"/>
<path d="M902 1100 c0 -19 2 -27 5 -17 2 9 2 25 0 35 -3 9 -5 1 -5 -18z"/>
<path d="M1078 1111 c-56 -19 -86 -45 -104 -88 -20 -47 -17 -90 16 -258 17
-82 30 -151 30 -153 0 -2 5 0 11 4 8 4 9 -1 4 -15 -4 -14 3 -52 19 -101 30
-88 40 -111 75 -158 l25 -32 212 0 c192 0 214 -2 223 -17 14 -26 172 -24 232
2 26 12 44 16 46 9 2 -5 43 -75 91 -154 77 -128 90 -145 116 -148 16 -2 32 2
37 10 7 10 9 10 9 1 0 -9 20 -13 68 -12 l67 1 -43 15 c-24 8 -45 20 -47 27
-17 55 -102 271 -122 309 -29 57 -95 132 -135 153 -49 25 -188 56 -202 45 -17
-14 -449 -16 -454 -2 -2 5 8 34 22 63 14 29 23 54 21 56 -6 6 -55 -95 -55
-113 0 -9 -9 -15 -25 -15 -28 0 -30 -3 -14 -28 12 -20 -15 -96 -33 -90 -36 12
-110 218 -134 368 -3 19 -9 48 -15 64 -11 34 -12 167 -1 181 17 24 33 15 30
-18 -1 -18 1 -37 5 -43 3 -6 15 -53 27 -105 26 -122 60 -232 74 -241 28 -19
36 -7 36 50 0 62 26 161 56 211 26 44 53 50 81 17 26 -31 29 -59 9 -107 -30
-75 -29 -87 7 -103 50 -20 278 -78 285 -72 3 3 -5 28 -18 56 l-23 50 25 20 26
20 -44 77 c-54 96 -114 153 -114 110 0 -18 -32 -47 -52 -47 -27 0 -68 40 -68
66 0 20 -5 24 -29 24 -45 0 -78 16 -84 41 -5 18 -11 21 -37 15 -25 -4 -36 -1
-56 19 -14 14 -23 29 -19 34 10 18 -10 18 -57 2z m172 -651 c0 -17 93 -57 186
-81 49 -13 91 -26 94 -29 3 -3 25 -5 50 -5 173 -2 224 -6 208 -16 -10 -5 -18
-17 -18 -25 0 -10 -6 -13 -17 -10 -10 3 -48 6 -85 8 -37 2 -64 7 -60 12 3 5
-3 6 -12 3 -14 -6 -17 -3 -12 9 4 11 2 15 -8 11 -12 -5 -220 -10 -312 -7 -27
0 -64 32 -64 54 0 10 -4 14 -10 11 -5 -3 3 12 17 35 26 38 43 51 43 30z"/>
<path d="M1404 1108 c2 -7 11 -13 21 -13 10 0 19 6 21 13 1 7 0 8 -3 2 -2 -5
-11 -10 -18 -10 -7 0 -16 5 -18 10 -3 6 -4 5 -3 -2z"/>
<path d="M3846 1069 c-33 -59 -31 -93 10 -147 l26 -34 30 36 c16 20 44 39 61
44 47 12 45 35 -3 57 -29 13 -48 31 -61 57 -11 21 -23 38 -27 38 -4 0 -20 -23
-36 -51z"/>
<path d="M3993 1113 c-27 -5 -31 -38 -7 -47 22 -9 54 11 54 34 0 20 -5 21 -47
13z"/>
<path d="M6587 1060 c-3 -11 -1 -23 4 -26 5 -3 9 6 9 20 0 31 -6 34 -13 6z"/>
<path d="M3222 995 c0 -16 2 -22 5 -12 2 9 2 23 0 30 -3 6 -5 -1 -5 -18z"/>
<path d="M6580 1001 c0 -5 -9 -11 -21 -14 -18 -5 -19 -8 -7 -27 11 -18 11 -23
-3 -33 -22 -16 -33 -54 -18 -62 8 -6 7 -10 -2 -16 -8 -5 -9 -9 -4 -9 6 0 12
-13 13 -30 2 -21 -4 -32 -19 -41 -16 -8 -18 -13 -9 -19 17 -11 3 -30 -22 -30
-30 0 -6 -26 31 -33 16 -3 40 -9 55 -13 l26 -6 0 171 c0 107 -4 171 -10 171
-5 0 -10 -4 -10 -9z"/>
<path d="M3231 944 c0 -11 3 -14 6 -6 3 7 2 16 -1 19 -3 4 -6 -2 -5 -13z"/>
<path d="M894 850 c0 -52 1 -74 3 -47 2 26 2 68 0 95 -2 26 -3 4 -3 -48z"/>
<path d="M3578 713 c23 -2 61 -2 85 0 23 2 4 4 -43 4 -47 0 -66 -2 -42 -4z"/>
<path d="M1666 688 c-18 -25 -21 -58 -7 -58 6 0 13 5 17 11 3 6 17 8 29 5 13
-3 27 -1 30 5 4 6 13 8 21 5 20 -8 17 18 -4 37 -26 24 -68 21 -86 -5z"/>
<path d="M902 675 c0 -16 2 -22 5 -12 2 9 2 23 0 30 -3 6 -5 -1 -5 -18z"/>
<path d="M6516 663 c-4 -13 -13 -20 -20 -17 -16 6 -29 -45 -16 -61 12 -15 -1
-32 -34 -45 -21 -8 -27 -15 -23 -30 3 -13 1 -20 -6 -18 -7 1 -22 -4 -35 -11
-20 -11 -21 -15 -10 -29 11 -13 11 -15 -4 -9 -10 3 -17 3 -17 -1 4 -24 -3 -42
-16 -42 -19 0 -19 -10 0 -36 8 -12 11 -24 8 -28 -3 -3 -1 -6 5 -6 25 0 10 -19
-23 -30 -19 -6 -33 -16 -29 -21 3 -5 -3 -12 -13 -16 -19 -7 -43 -28 -43 -37 0
-3 8 -6 17 -6 12 0 7 -8 -16 -24 -19 -14 -28 -27 -22 -31 6 -3 11 -11 11 -17
0 -6 -6 -5 -16 3 -13 11 -17 10 -25 -4 -6 -9 -17 -17 -25 -17 -8 0 -12 -5 -9
-10 3 -6 1 -10 -5 -10 -6 0 -18 -6 -26 -14 -17 -18 -4 -60 21 -70 9 -3 13 -10
10 -16 -4 -7 71 -10 219 -10 l226 0 0 331 0 331 -25 -4 c-14 -3 -25 -1 -25 4
0 5 -4 7 -9 4 -5 -4 -11 0 -14 6 -2 8 -7 4 -11 -9z m-119 -359 c-3 -3 -12 -4
-19 -1 -8 3 -5 6 6 6 11 1 17 -2 13 -5z m-125 -152 c-6 -14 -7 -13 -10 6 -2
12 -8 20 -13 17 -5 -3 -6 2 -2 11 6 16 7 16 19 -1 7 -9 10 -24 6 -33z m258
-22 c13 -8 13 -10 -2 -10 -9 0 -20 5 -23 10 -8 13 5 13 25 0z"/>
<path d="M1012 394 c10 -10 20 -16 22 -13 3 3 -5 11 -17 18 -21 13 -21 12 -5
-5z"/>
<path d="M2211 197 c-18 -18 -13 -34 20 -72 44 -49 109 -82 109 -55 0 19 -52
89 -85 114 -24 19 -35 22 -44 13z"/>
<path d="M1540 165 c-22 -23 -30 -25 -117 -25 l-93 0 0 -70 0 -70 120 0 120 0
0 95 c0 52 -1 95 -3 95 -2 0 -14 -11 -27 -25z"/>
<path d="M3890 97 l0 -97 125 0 126 0 -3 72 -3 71 -97 1 c-88 1 -99 3 -122 25
l-26 24 0 -96z"/>
<path d="M2620 101 c0 -25 18 -38 66 -46 42 -6 124 9 124 24 0 16 -57 33 -122
36 -60 3 -68 2 -68 -14z"/>
<path d="M3198 3 c12 -2 30 -2 40 0 9 3 -1 5 -23 4 -22 0 -30 -2 -17 -4z"/>
</g>
</svg>
