<?xml version="1.0" encoding="UTF-8"?> <svg xmlns="http://www.w3.org/2000/svg" width="277" height="64" viewBox="0 0 277 64" fill="none"> <path d="M14.0578 43.5621C-4.14963 30.5379 4.95405 19.2764 22.4688 4L27.911 9.97348C32.4732 14.2083 27.5027 16.9939 19.4011 21.9204C11.6473 26.7923 10.6483 29.6508 13.6618 34.9446C17.1743 39.8387 16.6803 41.4612 14.0578 43.5621Z" fill="#006CB5"></path> <path d="M19.0053 60.6991C21.5083 61.1409 22.7449 61.0575 24.8435 60.6991C23.9773 59.39 23.5492 58.5428 23.0624 56.4883C17.0931 55.2434 16.9463 56.6535 19.0053 60.6991Z" fill="#006CB5"></path> <path d="M30.5828 53.5505C24.8435 53.5505 22.7052 53.3671 26.7236 60.3074C29.2203 59.7767 30.511 59.3153 32.6608 58.251C30.5367 55.2804 30.5533 54.6598 30.5826 53.5577L30.5828 53.5505Z" fill="#006CB5"></path> <path d="M41.6655 47.9688C40.2731 51.7384 39.2928 53.8296 34.244 57.1738C31.4825 53.7489 31.666 52.2316 37.1137 50.7107C39.9652 49.5134 40.6421 48.9504 41.6655 47.9688Z" fill="#006CB5"></path> <path d="M14.0578 45.6185C19.2016 42.0883 19.0142 39.7668 16.1357 35.3363C13.3733 31.3414 12.7769 29.1766 17.0263 25.7396C25.4625 20.1453 28.361 17.8523 31.7702 14.576C36.28 19.097 34.0807 22.2301 24.8435 28.4815C23.1072 29.6566 24.1508 31.1801 25.8331 29.9504C31.2824 25.9669 33.1751 24.068 36.3221 20.7453C39.7547 25.5253 39.0075 28.3676 30.5828 33.8674C28.9328 34.9446 30.187 36.468 31.7702 35.3363C35.6138 32.5889 37.4951 30.9293 40.2802 27.6981C42.8531 32.1723 42.2787 34.7178 35.9262 39.3513C34.4419 40.4339 35.3325 42.0124 36.8168 41.1139C39.9895 39.1936 41.1367 37.8698 42.754 35.3363C43.3352 42.5941 43.3802 46.4608 37.1137 48.7522C33.0566 50.2357 31.2754 50.4169 30.8797 51.8858C24.7933 51.3087 23.3236 51.9925 23.0624 54.4319C16.9524 53.6336 15.5265 54.8971 16.7294 60.3074C0.896868 57.4676 -3.06117 42.289 2.18337 29.6566L2.23914 29.8638C3.4183 34.2469 4.97758 40.043 14.0578 45.6185Z" fill="#E21F25"></path> <path d="M75.536 33.44C77.836 34.59 79.262 36.936 79.262 39.834V41.95C79.262 46.918 76.088 50.138 71.442 50.138H65.324C64.266 50.138 63.484 49.356 63.484 48.252V25.436C63.484 20.56 66.474 17.34 70.936 17.34C75.536 17.34 78.572 20.56 78.572 25.436V27.46C78.572 30.174 77.422 32.382 75.536 33.44ZM67.624 25.206V31.83H70.936C73.098 31.83 74.432 30.312 74.432 27.782V25.206C74.432 22.722 73.144 21.204 70.936 21.204C68.866 21.204 67.624 22.722 67.624 25.206ZM75.03 42.18V39.788C75.03 37.166 73.696 35.602 71.35 35.602H67.624V46.32H71.35C73.696 46.32 75.03 44.756 75.03 42.18ZM86.2152 50C85.8012 50 85.5712 49.77 85.5712 49.356V30.726H81.0632C80.6492 30.726 80.4192 30.496 80.4192 30.082V27.598C80.4192 27.23 80.6492 27 81.0632 27H94.0812C94.4492 27 94.6792 27.23 94.6792 27.598V30.082C94.6792 30.496 94.4492 30.726 94.0812 30.726H89.5272V49.356C89.5272 49.77 89.2972 50 88.8832 50H86.2152ZM103.756 50.506C99.3396 50.506 96.3956 47.378 96.3956 43.008V33.992C96.3956 29.622 99.3396 26.494 103.756 26.494C108.218 26.494 111.116 29.622 111.116 33.992V43.008C111.116 47.378 108.218 50.506 103.756 50.506ZM103.756 46.78C105.872 46.78 107.16 45.308 107.16 43.146V33.854C107.16 31.692 105.872 30.22 103.756 30.22C101.64 30.22 100.398 31.692 100.398 33.854V43.146C100.398 45.308 101.64 46.78 103.756 46.78ZM122.497 26.494C126.867 26.494 129.811 29.622 129.811 33.992V43.008C129.811 47.378 126.867 50.506 123.141 50.506C121.485 50.506 120.151 49.908 119.093 48.942V58.602C119.093 58.97 118.863 59.2 118.495 59.2H115.781C115.367 59.2 115.137 58.97 115.137 58.602V33.992C115.137 29.622 118.081 26.494 122.497 26.494ZM125.855 43.146V33.854C125.855 31.692 124.613 30.266 122.497 30.266C120.381 30.266 119.093 31.692 119.093 33.854V43.146C119.093 45.308 120.381 46.734 122.497 46.734C124.613 46.734 125.855 45.308 125.855 43.146ZM140.182 50.46C135.72 50.46 132.73 47.378 132.73 43.054C132.73 39.236 135.674 36.292 139.998 36.292H143.448V33.762C143.448 31.692 142.206 30.266 140.136 30.266C138.204 30.266 137.146 31.554 137.008 33.44C136.962 33.854 136.778 33.992 136.364 33.992H133.696C133.328 33.992 133.098 33.716 133.098 33.348C133.374 29.346 136.088 26.494 140.182 26.494C144.552 26.494 147.358 29.622 147.358 33.946V43.192C147.358 47.424 144.598 50.46 140.182 50.46ZM140.136 46.688C142.252 46.688 143.448 45.308 143.448 43.192V39.834H140.136C137.974 39.834 136.686 41.26 136.686 43.054C136.686 45.262 137.974 46.688 140.136 46.688ZM157.985 26.494C162.079 26.494 164.977 29.346 164.977 33.67V49.356C164.977 49.77 164.747 50 164.379 50H161.711C161.343 50 161.113 49.77 161.113 49.356V41.628H157.709L153.845 49.448C153.707 49.862 153.431 50 153.063 50H150.211C149.751 50 149.475 49.678 149.705 49.264L154.167 40.708C151.867 39.558 150.395 37.166 150.395 34.038C150.395 29.438 153.661 26.494 157.985 26.494ZM161.113 37.948V33.716C161.113 31.508 159.871 30.266 157.985 30.266C155.823 30.266 154.351 31.6 154.351 34.084C154.351 36.568 155.731 37.948 157.893 37.948H161.113ZM179.605 50C179.237 50 179.007 49.77 179.007 49.356V43.56C179.007 40.432 180.663 38.086 183.147 37.074L178.593 27.736C178.409 27.276 178.685 27 179.145 27H181.997C182.319 27 182.595 27.138 182.733 27.46L186.919 36.292H188.851V27.598C188.851 27.23 189.081 27 189.449 27H192.071C192.439 27 192.715 27.23 192.715 27.598V36.292H194.601L198.787 27.46C198.925 27.138 199.201 27 199.523 27H202.421C202.835 27 203.111 27.276 202.927 27.736L198.373 37.074C200.857 38.086 202.513 40.432 202.513 43.56V49.356C202.513 49.77 202.283 50 201.915 50H199.247C198.879 50 198.649 49.77 198.649 49.356V43.422C198.649 41.352 197.223 40.018 195.153 40.018H192.715V49.356C192.715 49.77 192.439 50 192.071 50H189.449C189.081 50 188.851 49.77 188.851 49.356V40.018H186.367C184.297 40.018 182.871 41.352 182.871 43.422V49.356C182.871 49.77 182.641 50 182.273 50H179.605ZM213.509 50.046C209.185 50.046 206.103 47.102 206.103 42.778V27.598C206.103 27.23 206.333 27 206.747 27H209.415C209.829 27 210.059 27.23 210.059 27.598V42.916C210.059 44.986 211.439 46.32 213.509 46.32H216.315V27.598C216.315 27.23 216.545 27 216.913 27H219.627C219.995 27 220.225 27.23 220.225 27.598V47.746C220.225 49.264 219.397 50.046 217.925 50.046H213.509ZM231.044 50.506C226.812 50.506 223.96 47.654 223.638 43.652C223.638 43.238 223.868 43.008 224.282 43.008H226.996C227.364 43.008 227.548 43.192 227.64 43.606C227.824 45.492 229.066 46.734 231.09 46.734C233.16 46.734 234.448 45.446 234.448 43.1C234.448 40.984 233.206 39.65 230.86 39.65H229.066C228.698 39.65 228.422 39.42 228.422 39.052V36.798C228.422 36.384 228.698 36.154 229.066 36.154H230.676C232.746 36.154 233.896 34.958 233.896 33.118C233.896 31.278 232.792 30.128 230.906 30.128C229.204 30.128 228.146 31.094 228.008 33.256C227.962 33.67 227.732 33.9 227.364 33.9H224.696C224.282 33.9 224.052 33.67 224.098 33.256C224.328 28.978 226.996 26.494 230.906 26.494C235 26.494 237.668 29.116 237.668 32.98C237.668 35.096 236.61 36.752 235 37.626C237.07 38.454 238.45 40.432 238.45 43.1C238.45 47.562 235.414 50.506 231.044 50.506ZM251.989 27.598C251.989 27.23 252.219 27 252.633 27H255.301C255.669 27 255.899 27.23 255.899 27.598V49.356C255.899 49.77 255.669 50 255.301 50H252.633C252.219 50 251.989 49.77 251.989 49.356V40.018H245.825V49.356C245.825 49.77 245.595 50 245.227 50H242.559C242.145 50 241.915 49.77 241.915 49.356V27.598C241.915 27.23 242.145 27 242.559 27H245.227C245.595 27 245.825 27.23 245.825 27.598V36.338H251.989V27.598ZM263.262 50.138C261.79 50.138 260.962 49.31 260.962 47.838V27.598C260.962 27.23 261.192 27 261.606 27H264.274C264.642 27 264.872 27.23 264.872 27.598V35.464H268.046C272.416 35.464 275.406 38.454 275.406 42.732C275.406 47.148 272.324 50.138 268 50.138H263.262ZM264.872 46.458H268C270.162 46.458 271.496 45.078 271.496 42.686C271.496 40.386 270.162 39.006 268 39.006H264.872V46.458Z" fill="#E21F25"></path> </svg> 